# xmcd
#
# Track frame offsets: 
#        150
#        12043
#        23685
#        36952
#        48125
#        61594
#        76072
#        87949
#        101635
#        114288
#        125009
#        138426
#        147945
#        158273
#        172264
#        187103
#        200387
#        214029
#        224660
#        239531
#        251918
#        263907
#        274632
#        286325
#        297969
#        310583
#
# Disc length: 4310 seconds
#
# Revision: 3
# Processed by: cddbd v1.5.2PL0 Copyright (c) Steve Scherf et al.
# Submitted via: ExactAudioCopy v1.0b1
#
DISCID=7510d41a
DTITLE=Shorty Long - Here Comes... Shorty Long - The Complete Motown S
DTITLE=tereo Masters
DYEAR=2012
DGENRE=Motown
TTITLE0=Here Comes The Judge (stereo)
TTITLE1=Night Fo' Last (version 2) (inst) (stereo)
TTITLE2=Function At The Junction (stereo)
TTITLE3=Don't Mess With My Weekend (stereo)
TTITLE4=Ain't No Justice (stereo)
TTITLE5=Devil With The Blue Dress (stereo)
TTITLE6=Night Fo Last (version 1) (stereo)
TTITLE7=Stranded In The Jungle (stereo)
TTITLE8=Here Comes Fat Albert (stereo)
TTITLE9=Sing What You Wanna (stereo)
TTITLE10=Another Hurt Like This (stereo)
TTITLE11=People Sure Act Funny (stereo)
TTITLE12=Mobile Lil The Dancing Witch (stereo)
TTITLE13=Chantilly Lace (alt) (stereo)
TTITLE14=I Had A Dream (stereo)
TTITLE15=A Whiter Shade Of Pale (stereo)
TTITLE16=Memories Are Made Of This (stereo)
TTITLE17=I'm Walkin' (stereo)
TTITLE18=Cross My Heart (stereo)
TTITLE19=Lillie Of The Valley (stereo)
TTITLE20=Blue Monday (stereo)
TTITLE21=Baby Come Home To Me (stereo)
TTITLE22=I Wish You Were Here (stereo)
TTITLE23=When You Are Available (stereo)
TTITLE24=Give Me Some Air (stereo)
TTITLE25=The Deacon Work (stereo)
EXTD=
EXTT0=
EXTT1=
EXTT2=
EXTT3=
EXTT4=
EXTT5=
EXTT6=
EXTT7=
EXTT8=
EXTT9=
EXTT10=
EXTT11=
EXTT12=
EXTT13=
EXTT14=
EXTT15=
EXTT16=
EXTT17=
EXTT18=
EXTT19=
EXTT20=
EXTT21=
EXTT22=
EXTT23=
EXTT24=
EXTT25=
PLAYORDER=
